<svg width="245" height="91" viewBox="0 0 245 91" fill="none" xmlns="http://www.w3.org/2000/svg">
<g clip-path="url(#clip0_4013_20038)">
<path d="M30.287 12.2565C20.7093 12.2565 13.1538 20.059 13.1538 29.7668C13.1538 39.4745 20.1306 47.2771 30.7941 47.2771C38.9153 47.2771 43.3563 43.8504 45.8921 39.7281L39.546 35.6707C38.0245 38.6552 35.6122 40.3653 31.0412 40.3653C26.0281 40.3653 22.1593 37.3223 21.0799 32.3091H47.03C47.1535 31.6134 47.2186 30.3389 47.2186 29.071C47.2186 20.5077 40.8075 12.2565 30.2805 12.2565H30.287ZM21.0864 26.6587C22.1008 21.522 25.781 18.6026 30.4755 18.6026C35.1701 18.6026 38.5967 21.6456 39.4875 26.6587H21.0864ZM131.057 12.2565C126.486 12.2565 122.806 14.0966 120.524 16.6974V13.0172H112.91V46.4513H120.966V26.3401C121.031 22.5949 124.328 19.4869 128.704 19.4218C133.275 19.4218 136.253 22.2763 136.253 27.1009V46.4513H144.374V25.5794C144.374 17.6468 139.296 12.2565 131.051 12.2565H131.057ZM98.5595 16.7625V13.0172H90.9455V46.4513H99.0017V27.4195C99.0017 22.9135 102.682 19.8055 108.521 19.8055V12.2565C104.333 12.2565 100.842 14.0966 98.5595 16.7625ZM77.9997 17.7768C75.5224 14.5387 71.7837 12.7636 66.9591 12.7636C57.3814 12.7636 50.3981 19.7404 50.3981 29.7668C50.3981 39.7931 57.3749 47.212 66.9591 47.212C71.7837 47.212 75.5224 45.2419 77.9997 41.9453V46.4513H85.4837V13.0172H77.9997V17.7768ZM68.0385 40.1117C62.5181 40.1117 58.4608 35.7357 58.4608 29.7668C58.4608 23.7978 62.5246 19.4218 68.0385 19.4218C73.5523 19.4218 77.7462 23.6092 77.7462 29.7668C77.7462 35.9243 73.8124 40.1117 68.0385 40.1117Z" fill="#202939"/>
<path d="M0 0H8.06917V46.4514H0V0Z" fill="#202939"/>
<path d="M173.452 47.2121C160.447 47.2121 150.928 37.6344 150.928 24.435C150.928 11.2357 160.512 1.59949 173.387 1.59949C184.109 1.59949 191.027 7.692 193.751 14.9874L186.014 18.2255C184.05 12.5816 179.668 9.27853 173.263 9.27853C164.888 9.27853 159.179 15.4296 159.179 24.5716C159.179 33.7136 164.953 39.9232 174.154 39.9232C181.072 39.9232 186.02 36.4315 187.73 29.2011H173.198V23.0436H195.591C195.591 38.3366 185.949 47.2186 173.452 47.2186V47.2121Z" fill="#2970FF"/>
<path d="M236.912 24.5C236.912 16.0602 230.045 9.18097 221.593 9.18097C213.14 9.18097 206.273 16.0537 206.273 24.5C206.273 27.9917 207.476 31.3923 209.655 34.1102L211.631 36.1129L207.86 39.8191H221.593C230.039 39.8191 236.912 32.9528 236.912 24.5Z" fill="white"/>
<path d="M202.555 39.8191H204.831L204.226 39.2014L204.005 38.9608C200.669 34.9034 198.829 29.7667 198.829 24.5065C198.829 11.9508 209.044 1.73596 221.6 1.73596C234.155 1.73596 244.37 11.9508 244.37 24.5065C244.37 37.0621 234.155 47.277 221.6 47.277H202.555V39.8256V39.8191ZM206.281 24.5C206.281 27.9916 207.483 31.3923 209.662 34.1037L211.632 36.1128L207.861 39.8191H221.6C230.046 39.8191 236.919 32.9463 236.919 24.5C236.919 16.0537 230.046 9.18092 221.6 9.18092C213.153 9.18092 206.281 16.0537 206.281 24.5Z" fill="#2970FF"/>
</g>
<path d="M138.651 90.3814V80.0531H138.462C138.226 80.5245 137.885 81.0253 137.439 81.5556C136.993 82.0775 136.403 82.5236 135.671 82.894C134.939 83.2644 134.017 83.4496 132.906 83.4496C131.382 83.4496 130.019 83.0581 128.815 82.2753C127.611 81.4925 126.66 80.3561 125.962 78.8662C125.263 77.3763 124.914 75.5666 124.914 73.4369C124.914 71.282 125.267 69.4639 125.974 67.9824C126.69 66.4925 127.653 65.3687 128.866 64.6112C130.078 63.8452 131.429 63.4622 132.919 63.4622C134.055 63.4622 134.989 63.6558 135.722 64.043C136.454 64.4218 137.035 64.8805 137.464 65.4193C137.893 65.9496 138.226 66.4504 138.462 66.9218H138.739V63.7147H143.234V90.3814H138.651ZM134.181 79.6996C135.149 79.6996 135.974 79.4386 136.656 78.9167C137.338 78.3864 137.855 77.6499 138.209 76.7071C138.563 75.7644 138.739 74.6659 138.739 73.4117C138.739 72.1575 138.563 71.0674 138.209 70.1415C137.864 69.2155 137.35 68.4959 136.669 67.9824C135.995 67.4689 135.166 67.2122 134.181 67.2122C133.163 67.2122 132.313 67.4773 131.631 68.0076C130.949 68.5379 130.435 69.2703 130.09 70.2046C129.745 71.139 129.573 72.208 129.573 73.4117C129.573 74.6238 129.745 75.7054 130.09 76.6566C130.444 77.5994 130.962 78.3443 131.643 78.8915C132.334 79.4302 133.18 79.6996 134.181 79.6996Z" fill="#202939"/>
<path d="M158.515 74.9521V63.7147H163.085V83.1086H158.653V79.6617H158.451C158.014 80.7475 157.294 81.6356 156.292 82.3258C155.299 83.0161 154.074 83.3612 152.618 83.3612C151.347 83.3612 150.223 83.0792 149.247 82.5152C148.279 81.9428 147.521 81.1137 146.974 80.0278C146.427 78.9336 146.153 77.612 146.153 76.0632V63.7147H150.724V75.3561C150.724 76.5851 151.061 77.5615 151.734 78.2854C152.408 79.0093 153.292 79.3713 154.386 79.3713C155.059 79.3713 155.712 79.2071 156.343 78.8789C156.974 78.5506 157.492 78.0624 157.896 77.4142C158.308 76.7576 158.515 75.9369 158.515 74.9521Z" fill="#202939"/>
<path d="M166.008 83.1086V63.7147H170.578V83.1086H166.008ZM168.306 60.9622C167.582 60.9622 166.959 60.7223 166.437 60.2425C165.915 59.7543 165.654 59.1693 165.654 58.4874C165.654 57.7972 165.915 57.2122 166.437 56.7324C166.959 56.2442 167.582 56.0001 168.306 56.0001C169.038 56.0001 169.661 56.2442 170.174 56.7324C170.696 57.2122 170.957 57.7972 170.957 58.4874C170.957 59.1693 170.696 59.7543 170.174 60.2425C169.661 60.7223 169.038 60.9622 168.306 60.9622Z" fill="#202939"/>
<path d="M173.248 83.1086V80.2046L183.248 67.6667V67.5026H173.576V63.7147H188.842V66.8334L179.321 79.1566V79.3208H189.17V83.1086H173.248Z" fill="#202939"/>
<path d="M191.436 83.1086V80.2046L201.436 67.6667V67.5026H191.764V63.7147H207.029V66.8334L197.509 79.1566V79.3208H207.357V83.1086H191.436Z" fill="#202939"/>
<path d="M217.906 83.4874C215.962 83.4874 214.282 83.0834 212.868 82.2753C211.462 81.4588 210.381 80.3056 209.623 78.8157C208.866 77.3174 208.487 75.5539 208.487 73.5253C208.487 71.5304 208.866 69.7795 209.623 68.2728C210.389 66.7576 211.458 65.5792 212.83 64.7374C214.202 63.8873 215.814 63.4622 217.666 63.4622C218.861 63.4622 219.989 63.6558 221.05 64.043C222.119 64.4218 223.062 65.011 223.878 65.8107C224.703 66.6103 225.351 67.6288 225.823 68.8662C226.294 70.0952 226.53 71.5598 226.53 73.2602V74.6617H210.633V71.5809H222.148C222.14 70.7054 221.951 69.9268 221.58 69.245C221.21 68.5548 220.692 68.0118 220.027 67.6162C219.371 67.2206 218.605 67.0228 217.729 67.0228C216.795 67.0228 215.974 67.2501 215.267 67.7046C214.56 68.1507 214.009 68.74 213.613 69.4723C213.226 70.1962 213.028 70.9916 213.02 71.8586V74.548C213.02 75.676 213.226 76.644 213.638 77.4521C214.051 78.2517 214.627 78.8662 215.368 79.2955C216.109 79.7164 216.976 79.9268 217.969 79.9268C218.634 79.9268 219.236 79.8342 219.775 79.6491C220.313 79.4555 220.781 79.1735 221.176 78.8031C221.572 78.4327 221.871 77.974 222.073 77.4268L226.34 77.9066C226.071 79.0346 225.558 80.0194 224.8 80.8612C224.051 81.6945 223.091 82.3427 221.921 82.8056C220.751 83.2602 219.413 83.4874 217.906 83.4874Z" fill="#202939"/>
<path d="M243.947 68.841L239.78 69.2955C239.663 68.8746 239.456 68.479 239.162 68.1086C238.875 67.7383 238.488 67.4395 238 67.2122C237.512 66.9849 236.914 66.8713 236.207 66.8713C235.256 66.8713 234.456 67.0775 233.808 67.49C233.168 67.9024 232.853 68.4369 232.861 69.0935C232.853 69.6575 233.059 70.1162 233.48 70.4698C233.909 70.8233 234.616 71.1137 235.601 71.341L238.909 72.048C240.744 72.4437 242.108 73.0708 243 73.9294C243.901 74.7879 244.355 75.9117 244.364 77.3006C244.355 78.5211 243.998 79.5985 243.29 80.5329C242.592 81.4588 241.62 82.1827 240.374 82.7046C239.128 83.2265 237.697 83.4874 236.081 83.4874C233.707 83.4874 231.796 82.9908 230.349 81.9975C228.901 80.9959 228.038 79.6028 227.76 77.8182L232.217 77.389C232.419 78.2644 232.849 78.9251 233.505 79.3713C234.162 79.8174 235.016 80.0405 236.068 80.0405C237.154 80.0405 238.025 79.8174 238.682 79.3713C239.347 78.9251 239.679 78.3738 239.679 77.7172C239.679 77.1617 239.465 76.7029 239.035 76.341C238.615 75.979 237.958 75.7012 237.066 75.5076L233.758 74.8132C231.897 74.426 230.521 73.7736 229.629 72.8561C228.737 71.9302 228.295 70.7602 228.303 69.346C228.295 68.1507 228.619 67.1154 229.275 66.24C229.94 65.3561 230.862 64.6743 232.04 64.1945C233.227 63.7063 234.595 63.4622 236.144 63.4622C238.417 63.4622 240.205 63.9462 241.51 64.9142C242.823 65.8822 243.636 67.1911 243.947 68.841Z" fill="#202939"/>
<defs>
<clipPath id="clip0_4013_20038">
<rect width="244.364" height="47.2771" fill="white"/>
</clipPath>
</defs>
</svg>
