<svg width="129" height="129" viewBox="0 0 129 129" fill="none" xmlns="http://www.w3.org/2000/svg">
<rect x="0.5" y="0.5" width="128" height="128" rx="24" fill="#FFF3F0"/>
<path d="M74.6225 58.6225L68.75 64.5L74.63 70.3775C75.1936 70.9411 75.5102 71.7055 75.5102 72.5025C75.5102 73.2995 75.1936 74.0639 74.63 74.6275C74.0664 75.1911 73.302 75.5077 72.505 75.5077C71.708 75.5077 70.9436 75.1911 70.38 74.6275L64.5 68.75L58.6225 74.63C58.0589 75.1936 57.2945 75.5102 56.4975 75.5102C55.7005 75.5102 54.9361 75.1936 54.3725 74.63C53.8089 74.0664 53.4923 73.302 53.4923 72.505C53.4923 71.708 53.8089 70.9436 54.3725 70.38L60.25 64.5L54.3775 58.6225C54.0985 58.3434 53.8771 58.0121 53.7261 57.6475C53.575 57.2829 53.4973 56.8921 53.4973 56.4975C53.4973 55.7005 53.8139 54.9361 54.3775 54.3725C54.9411 53.8089 55.7055 53.4923 56.5025 53.4923C57.2995 53.4923 58.0639 53.8089 58.6275 54.3725L64.5 60.25L70.3775 54.37C70.9411 53.8064 71.7055 53.4898 72.5025 53.4898C73.2995 53.4898 74.0639 53.8064 74.6275 54.37C75.1911 54.9336 75.5077 55.698 75.5077 56.495C75.5077 57.292 75.1911 58.0564 74.6275 58.62L74.6225 58.6225ZM91.5 64.5C91.5 69.8401 89.9165 75.0603 86.9497 79.5004C83.9829 83.9405 79.7661 87.4012 74.8325 89.4447C69.8989 91.4883 64.4701 92.023 59.2326 90.9812C53.9951 89.9394 49.1841 87.3679 45.4081 83.5919C41.6321 79.8159 39.0606 75.0049 38.0188 69.7674C36.977 64.5299 37.5117 59.1012 39.5553 54.1675C41.5988 49.2339 45.0595 45.0171 49.4996 42.0503C53.9397 39.0835 59.1599 37.5 64.5 37.5C71.6584 37.5079 78.5214 40.3551 83.5831 45.4169C88.6449 50.4786 91.4921 57.3416 91.5 64.5ZM85.5 64.5C85.5 60.3466 84.2684 56.2865 81.9609 52.833C79.6534 49.3796 76.3736 46.688 72.5364 45.0985C68.6991 43.5091 64.4767 43.0932 60.4031 43.9035C56.3295 44.7138 52.5877 46.7139 49.6508 49.6508C46.7139 52.5877 44.7138 56.3295 43.9035 60.4031C43.0932 64.4767 43.5091 68.6991 45.0985 72.5364C46.688 76.3736 49.3796 79.6534 52.833 81.9609C56.2865 84.2684 60.3466 85.5 64.5 85.5C70.0677 85.494 75.4057 83.2796 79.3427 79.3427C83.2796 75.4057 85.4941 70.0677 85.5 64.5Z" fill="#DB340B"/>
</svg>
