<svg width="129" height="129" viewBox="0 0 129 129" fill="none" xmlns="http://www.w3.org/2000/svg">
<rect x="0.5" y="0.5" width="128" height="128" rx="24" fill="#FFF3F0"/>
<path d="M68.4989 83.4999C68.4989 84.291 68.2643 85.0644 67.8248 85.7222C67.3852 86.38 66.7605 86.8927 66.0296 87.1954C65.2987 87.4982 64.4945 87.5774 63.7185 87.423C62.9426 87.2687 62.2299 86.8877 61.6705 86.3283C61.1111 85.7689 60.7301 85.0562 60.5758 84.2803C60.4214 83.5043 60.5006 82.7001 60.8034 81.9692C61.1061 81.2383 61.6188 80.6135 62.2766 80.174C62.9344 79.7345 63.7078 79.4999 64.4989 79.4999C65.5598 79.4999 66.5772 79.9213 67.3273 80.6715C68.0775 81.4216 68.4989 82.439 68.4989 83.4999ZM86.7489 52.4999L90.6289 48.6224C91.1925 48.0588 91.5091 47.2944 91.5091 46.4974C91.5091 45.7004 91.1925 44.936 90.6289 44.3724C90.0653 43.8088 89.3009 43.4922 88.5039 43.4922C87.7069 43.4922 86.9425 43.8088 86.3789 44.3724L82.4989 48.2499L78.6214 44.3774C78.0578 43.8138 77.2934 43.4972 76.4964 43.4972C75.6994 43.4972 74.935 43.8138 74.3714 44.3774C73.8078 44.941 73.4912 45.7054 73.4912 46.5024C73.4912 47.2994 73.8078 48.0638 74.3714 48.6274L78.2489 52.4999L74.3764 56.3774C73.8128 56.941 73.4962 57.7054 73.4962 58.5024C73.4962 59.2994 73.8128 60.0638 74.3764 60.6274C74.94 61.191 75.7044 61.5076 76.5014 61.5076C77.2984 61.5076 78.0628 61.191 78.6264 60.6274L82.4989 56.7499L86.3764 60.6299C86.6555 60.9089 86.9867 61.1303 87.3514 61.2813C87.716 61.4324 88.1067 61.5101 88.5014 61.5101C88.896 61.5101 89.2868 61.4324 89.6514 61.2813C90.016 61.1303 90.3473 60.9089 90.6264 60.6299C90.9055 60.3508 91.1268 60.0195 91.2778 59.6549C91.4289 59.2903 91.5066 58.8995 91.5066 58.5049C91.5066 58.1102 91.4289 57.7195 91.2778 57.3548C91.1268 56.9902 90.9055 56.6589 90.6264 56.3799L86.7489 52.4999ZM76.2739 71.3249C72.855 68.8375 68.7357 67.4976 64.5076 67.4976C60.2796 67.4976 56.1603 68.8375 52.7414 71.3249C52.0982 71.7933 51.6675 72.4981 51.544 73.2841C51.4204 74.0701 51.6142 74.873 52.0826 75.5161C52.5511 76.1593 53.2558 76.59 54.0418 76.7136C54.8279 76.8371 55.6307 76.6433 56.2739 76.1749C58.6667 74.4349 61.5491 73.4977 64.5076 73.4977C67.4662 73.4977 70.3486 74.4349 72.7414 76.1749C73.3845 76.6433 74.1874 76.8371 74.9734 76.7136C75.7595 76.59 76.4642 76.1593 76.9326 75.5161C77.4011 74.873 77.5948 74.0701 77.4713 73.2841C77.3478 72.4981 76.917 71.7933 76.2739 71.3249ZM67.4989 46.4999C67.4989 45.7042 67.1828 44.9412 66.6202 44.3786C66.0576 43.816 65.2945 43.4999 64.4989 43.4999C54.3252 43.5051 44.4666 47.0304 36.5964 53.4774C36.2919 53.7274 36.0396 54.0349 35.854 54.3824C35.6683 54.7299 35.5529 55.1106 35.5144 55.5027C35.4758 55.8948 35.5149 56.2906 35.6294 56.6676C35.7438 57.0446 35.9314 57.3954 36.1814 57.6999C36.4314 58.0044 36.7389 58.2567 37.0864 58.4423C37.4339 58.628 37.8146 58.7434 38.2067 58.7819C38.5988 58.8204 38.9946 58.7814 39.3716 58.6669C39.7486 58.5525 40.0994 58.3649 40.4039 58.1149C47.2006 52.5484 55.7137 49.5046 64.4989 49.4999C65.2945 49.4999 66.0576 49.1838 66.6202 48.6212C67.1828 48.0586 67.4989 47.2955 67.4989 46.4999ZM67.4989 58.4999C67.4989 57.7042 67.1828 56.9412 66.6202 56.3786C66.0576 55.816 65.2945 55.4999 64.4989 55.4999C57.2842 55.4732 50.2767 57.911 44.6364 62.4099C44.0284 62.909 43.6407 63.6269 43.5568 64.409C43.473 65.1912 43.6997 65.9749 44.1882 66.5916C44.6766 67.2082 45.3877 67.6083 46.1682 67.7057C46.9488 67.8031 47.7364 67.59 48.3614 67.1124C52.944 63.4575 58.6374 61.4774 64.4989 61.4999C65.2945 61.4999 66.0576 61.1838 66.6202 60.6212C67.1828 60.0586 67.4989 59.2955 67.4989 58.4999Z" fill="#DB340B"/>
</svg>
