<svg width="183" height="195" viewBox="0 0 183 195" fill="none" xmlns="http://www.w3.org/2000/svg">
<path d="M103.861 145.958C105.444 133.715 99.6442 113.352 97.5515 107.755C95.4588 102.159 93.1485 93.5099 93.4452 90.2714C93.7419 87.0329 83.8361 76.0536 83.8361 76.0536C83.5796 76.1699 83.3345 76.31 83.1043 76.4722L61.0062 78.0283C61.0062 78.0283 50.1945 89.8765 57.3272 108.044C59.0994 112.55 57.9245 116.882 54.9536 119.236C51.9826 121.59 47.188 131.61 52.8648 138.091C58.5416 144.572 57.6436 152.522 55.2384 157.53C52.8332 162.538 48.6675 169.607 57.9245 178.738H70.7696C70.7696 178.738 74.951 168.134 77.6411 162.545C79.4054 158.873 81.9373 151.136 82.7126 141.677C83.9825 143.517 85.3948 145.164 86.637 146.756C90.6444 151.89 88.5912 153.126 86.4985 163.738C84.4058 174.35 92.2465 178.351 92.2465 178.351L103.058 177.956C105.135 173.825 102.714 154.722 103.861 145.958Z" fill="#121926"/>
<path d="M61.7939 78.4627L62.9451 71.0892L64.1161 71.2709L63.1904 77.1673L83.7298 75.6389L82.7131 70.0703L83.8762 69.857L85.1342 76.7211L61.7939 78.4627Z" fill="#121926"/>
<path d="M62.8068 179.382C59.3295 176.384 59.7568 165.377 62.7079 161.214C65.2319 157.66 67.0595 144.094 61.2047 139.098C59.2742 137.447 58.2298 135.445 58.0992 133.146C57.8421 128.478 61.3629 123.668 64.3615 120.472C68.8516 115.674 65.4811 106.962 65.4455 106.875L66.5492 106.44C66.7035 106.835 70.2322 115.919 65.2279 121.278C62.9018 123.766 59.0368 128.604 59.2939 133.083C59.4047 135.058 60.3106 136.764 61.984 138.197C68.4006 143.683 66.4582 157.996 63.6851 161.894C61.0939 165.543 60.6034 175.902 63.5901 178.481L62.8068 179.382Z" fill="white"/>
<path d="M71.3513 178.801L70.2871 178.28C78.6817 161.297 81.5577 146.728 82.4913 137.506C83.6781 125.705 82.2698 117.475 80.6913 114.015C77.04 106.014 79.7419 95.8756 79.8566 95.4531L81.0038 95.7611C80.9761 95.8638 78.3019 105.923 81.7713 113.533C85.1893 121.018 87.1435 146.835 71.3513 178.801Z" fill="white"/>
<path d="M68.0836 190.191L72.8901 177.948H55.373L56.1642 193.351L56.2275 194.536H58.4152L58.8108 193.351L59.2459 192.067L60.5475 193.351L61.3386 194.141H73.0127V190.191H68.0836ZM58.7435 189.895L57.5765 193.351H57.3629L56.6271 179.133H71.1495L66.343 191.376H71.8259V192.956H61.849L58.7435 189.895Z" fill="#121926"/>
<path d="M100.926 189.796L105.733 177.553H88.2158L89.0387 193.351L89.0782 194.141H91.2896L91.5586 193.351L92.1243 191.672L93.8254 193.351L94.221 193.746H105.871V189.796H100.926ZM91.5863 189.5L90.4193 192.956H90.2057L89.4659 178.738H103.992L99.2016 190.981H104.685V192.561H94.6918L91.5863 189.5Z" fill="#121926"/>
<path d="M70.117 47.8194C69.9618 48.3073 69.7294 48.7673 69.4287 49.1819C69.1967 49.5128 68.9415 49.8269 68.6652 50.1219L67.8463 49.6795L67.6445 49.4821C67.9113 49.2116 68.1585 48.9226 68.3843 48.6171C68.9263 47.8826 69.1518 47.2349 69.0489 46.7175C68.9212 46.2654 68.6018 45.8916 68.1746 45.6946L68.6335 44.6046C69.4196 44.9444 70.0038 45.6283 70.2159 46.4568C70.3021 46.9119 70.268 47.3815 70.117 47.8194Z" fill="#2970FF"/>
<path d="M72.898 66.1801C72.2919 66.7861 71.4609 67.1137 70.6036 67.0845C67.8344 67.0845 64.4876 64.391 64.3057 64.241L65.0573 63.3247C66.4419 64.4542 70.3979 67.0253 72.0554 65.3468L72.898 66.1801Z" fill="#2970FF"/>
<path d="M81.9655 55.9551C81.9166 56.0577 81.8584 56.1555 81.7914 56.2473L80.8262 55.5562C80.8644 55.5049 80.8963 55.4492 80.9211 55.3903L81.9655 55.9551Z" fill="#2970FF"/>
<path d="M75.2165 59.2805C75.0668 59.457 74.8823 59.6008 74.6745 59.7031C74.4294 59.8306 74.1595 59.9034 73.8834 59.9164H73.7489C71.6403 59.9164 68.6061 57.1281 68.2461 56.8042L69.0373 55.9393C70.2241 57.0333 72.4909 58.7316 73.7212 58.7316H73.7963C73.9709 58.7323 74.1377 58.6591 74.2552 58.5301L75.2165 59.2805Z" fill="#2970FF"/>
<path d="M85.3159 61.9069L84.9757 63.0404C84.6392 62.9294 84.2707 62.9743 83.9709 63.1628C82.8711 63.7986 82.1155 65.8918 81.8307 66.9266C81.803 67.0292 81.7832 67.1201 81.7634 67.1991L81.1938 67.0687L80.6162 66.9345C80.7032 66.5395 81.5221 63.2181 83.3854 62.1359C83.9666 61.7879 84.6692 61.7046 85.3159 61.9069Z" fill="#2970FF"/>
<path d="M182.87 193.351H0.5V194.536H182.87V193.351Z" fill="#121926"/>
<path d="M25.3636 194.536C26.5504 194.931 51.5126 194.536 51.5126 194.536C51.5126 194.536 52.5965 187.427 45.3888 185.452C38.181 183.477 39.3796 183.872 38.9801 173.999C38.5805 164.125 36.5748 148.723 30.5697 156.621C24.5645 164.52 27.7649 173.999 22.1593 178.738C16.5537 183.477 14.1484 185.847 14.1484 194.536H25.3636Z" fill="#121926"/>
<path d="M115.86 31.7887L114.452 31.6584L111.22 27.2232L108.957 24.1229L87.4011 36.9545L81.5739 40.4181L77.3964 38.3605L76.2571 37.7957L75.9802 37.6615L69.1047 34.265L68.0287 33.7358L66.2564 32.8629L56.6553 43.6251L62.3084 46.6779C61.5172 51.3382 59.191 63.3247 57.5375 71.725L57.3871 72.5149L62.7752 72.037L63.9936 71.9265L82.7093 70.2638L83.8961 70.1571L91.0168 69.5252L90.289 65.0506L88.5562 54.4385L96.037 57.6573L105.076 61.583L121.355 32.2982L115.86 31.7887ZM58.5423 43.2933L66.5452 34.3203L67.3364 34.7152L68.4006 35.2405L75.6795 38.8344L76.1266 39.0556L77.2461 39.6046L81.6214 41.7649L86.2064 39.0359L86.867 38.6409L87.144 38.475L108.625 25.6908L112.878 31.5083L113.807 32.784L115.144 34.6165L101.279 43.7791L99.0831 45.2483L98.8972 45.3667L97.7934 46.0974L90.103 51.1724L88.2477 52.3927L87.7057 52.7482L87.1637 53.1115L86.5149 53.542L82.4561 56.2236L81.93 55.9393L80.8896 55.3745L77.0483 53.2971L69.4133 49.1661L68.3452 48.5974L63.598 46.0381L62.5022 45.4497L58.5423 43.2933ZM89.1378 65.2875L89.652 68.447L58.8508 71.1761C59.7528 66.6027 62.4112 53.0088 63.4002 47.2664L67.819 49.6597L68.6379 50.1021L76.3481 54.2647L82.5036 57.5901L87.3497 54.3911L89.1378 65.2875ZM104.542 60.0664L94.961 55.9116L88.9953 53.3208L91.1118 51.9227L98.9367 46.7569L99.9653 46.0737L116.841 34.9324L115.382 32.938L119.437 33.3092L104.542 60.0664Z" fill="#121926"/>
<path d="M121.355 19.1823L118.151 24.7114H117.399L118.981 21.157H115.749L111.999 26.5044L111.279 27.2272L110.599 27.9144L113.368 31.5557L114.203 32.6576L114.958 32.2627L115.919 31.7769L120.042 29.7074L128.523 19.1823H121.355ZM119.314 28.7832L114.586 31.1529L112.213 28.0131L112.925 27.2983L116.382 22.3418H117.173L115.571 25.8962H118.835L122.039 20.3671H126.07L119.314 28.7832Z" fill="#121926"/>
<path d="M72.5228 41.9703L71.5101 42.6022C69.8367 39.96 66.8183 41.5517 66.6917 41.6227L66.1221 40.5801C67.5541 39.806 70.7189 39.0991 72.5228 41.9703Z" fill="#2970FF"/>
<path d="M76.6885 49.9244C76.2738 50.1269 75.8169 50.2285 75.3553 50.2206C73.4169 50.2206 71.2174 48.6921 70.1176 47.8193C69.7814 47.5547 69.548 47.3494 69.4609 47.2664L70.1967 46.4528L70.2561 46.3896C71.3321 47.3573 74.4929 49.6874 76.1623 48.8659L76.6885 49.9244Z" fill="#2970FF"/>
<path d="M94.6322 43.242C94.3315 43.3433 94.016 43.3941 93.6986 43.3921C93.5101 43.393 93.322 43.3758 93.1369 43.3407C91.9224 43.1314 90.8266 42.2823 90.0789 41.5517C89.721 41.2024 89.3891 40.8275 89.0859 40.43L89.7149 39.968L90.0433 39.7271C90.2749 40.0373 90.5287 40.3303 90.8028 40.6038C91.5228 41.3266 92.5514 42.1243 93.5443 42.2073C93.7898 42.2307 94.0375 42.2038 94.2722 42.1283L94.4779 42.7562L94.6322 43.242Z" fill="#2970FF"/>
<path d="M101.971 34.111C98.3904 36.1568 95.3206 38.5659 95.4037 39.2689L94.3395 39.7902C93.4217 37.9774 98.3588 34.81 101.381 33.0762L101.971 34.111Z" fill="#2970FF"/>
<path d="M107.114 33.795C107.074 34.8392 106.742 35.8515 106.156 36.7176L105.654 36.3226L105.211 35.987C105.7 35.2275 105.955 34.3421 105.947 33.4396C105.966 32.9874 105.949 32.5344 105.895 32.0849L106.797 31.9586L107.07 31.9191C107.147 32.5414 107.161 33.1698 107.114 33.795Z" fill="#2970FF"/>
<path d="M100.902 40.7025C100.606 41.0382 99.0351 42.8076 97.3222 44.4189C97.0176 44.7072 96.709 44.9876 96.4044 45.2522C95.2572 46.2514 94.1337 47.0611 93.3623 47.2269L93.1328 46.0658C93.6194 45.971 94.4146 45.4142 95.3244 44.6361C95.6251 44.3834 95.9376 44.103 96.2541 43.8068C97.5833 42.5745 99.0233 41.0738 100.008 39.9363L100.902 40.7025Z" fill="#2970FF"/>
<path d="M65.0734 43.7317L64.5473 44.7902C62.9649 44.0003 62.8581 42.2151 63.0282 41.3779L64.1912 41.6109C64.1794 41.6938 63.9104 43.1551 65.0734 43.7317Z" fill="#2970FF"/>
<path d="M64.7842 57.606L64.0761 58.5617C62.1693 57.1478 64.262 52.7561 64.7011 51.8912L65.7613 52.4283C64.8633 54.1581 63.9455 57.0056 64.7842 57.606Z" fill="#2970FF"/>
<path d="M66.2287 66.6145L65.7896 67.7204C64.9122 67.3426 63.8906 67.5852 63.2775 68.3167L62.332 67.5979C63.2687 66.4436 64.8551 66.0433 66.2287 66.6145Z" fill="#2970FF"/>
<path d="M101.971 56.354C100.416 56.354 98.6 54.3793 98.4102 54.1344L99.2963 53.3445C99.9767 54.1107 101.247 55.1692 101.978 55.1692H102.006C102.165 55.1727 102.315 55.0935 102.402 54.9598L103.347 55.6786C103.048 56.09 102.575 56.3395 102.065 56.354H101.971Z" fill="#2970FF"/>
<path d="M101.908 50.0113C101.709 49.5236 101.724 48.9753 101.947 48.4986C102.683 46.8596 105.539 45.7933 105.864 45.6788L106.259 46.7925C105.223 47.1874 103.423 48.0919 103.027 48.9805C102.933 49.1636 102.924 49.3789 103.004 49.5689L101.908 50.0113Z" fill="#2970FF"/>
<path d="M108.482 49.0278L107.647 48.1827C108.834 46.9978 109.368 43.4947 109.475 42.2349L110.662 42.3376C110.614 42.8431 110.191 47.3414 108.482 49.0278Z" fill="#2970FF"/>
<path d="M94.2728 53.0957C93.8574 51.4449 95.3725 50.3667 96.2508 50.027L96.6859 51.1289C96.6266 51.1566 95.1747 51.7529 95.4398 52.8035L94.2728 53.0957Z" fill="#2970FF"/>
<path d="M113.463 42.2862H112.276C112.276 41.4015 113 39.9166 113.143 39.648L114.203 40.1851C113.894 40.7894 113.463 41.8399 113.463 42.2862Z" fill="#2970FF"/>
<path d="M76.9531 66.8989L75.9009 67.436L74.6982 65.0664L75.7545 64.5292L76.9531 66.8989Z" fill="#2970FF"/>
<path d="M174.507 174.212C173.126 172.818 171.073 172.498 168.403 173.26C164.447 174.386 160.701 176.052 157.682 177.391C154.427 178.833 151.064 180.326 150.297 179.65C150.134 179.512 149.83 178.963 150.451 176.886C150.91 175.357 151.555 173.556 152.235 171.653C154.648 164.939 157.14 157.968 154.692 155.441C153.683 154.398 152.053 154.256 149.699 155.01C143.14 157.107 138.112 161.412 136.886 165.978C136.261 168.308 136.739 170.5 138.231 172.139C138.836 172.802 138.872 173.142 138.852 173.189C138.832 173.237 138.591 173.402 137.819 173.371C134.817 173.237 128.42 170.152 126.347 164.489C125.433 161.985 123.91 161.574 123.083 161.554C121.244 161.511 119.302 163.233 118.154 165.95C115.749 171.629 116.604 181.041 126.205 190.401L126.379 190.57H174.82L174.946 190.148C175.093 189.678 178.459 178.197 174.507 174.212ZM173.93 189.401H126.893C117.881 180.511 117.043 171.716 119.278 166.424C120.211 164.22 121.715 162.755 123.04 162.755H123.083C123.989 162.779 124.765 163.545 125.263 164.911C127.613 171.364 134.694 174.429 137.788 174.571C139.196 174.631 139.742 174.137 139.944 173.706C140.244 173.071 139.971 172.281 139.129 171.357C137.899 170.006 137.527 168.256 138.053 166.297C139.176 162.111 143.896 158.13 150.083 156.155C151.934 155.563 153.204 155.606 153.861 156.282C155.791 158.276 153.212 165.48 151.139 171.27C150.451 173.189 149.802 175.006 149.331 176.558C148.706 178.643 148.77 179.872 149.533 180.539C150.87 181.724 153.778 180.428 158.185 178.473C161.148 177.158 164.87 175.5 168.727 174.394C170.951 173.758 172.612 173.979 173.665 175.041C176.738 178.146 174.491 187.316 173.93 189.401Z" fill="#121926"/>
<path d="M143.667 74.8672L113.924 81.5267L120.611 111.236L150.354 104.577L143.667 74.8672Z" fill="#2970FF"/>
<path d="M134.56 108.044L131.664 92.1356L116.972 94.7975L108.344 96.3772L112.545 119.489L135.885 115.263L134.56 108.044ZM113.502 118.095L109.724 97.3132L117.241 95.9546L130.723 93.51L133.413 108.3L134.501 114.292L113.502 118.095Z" fill="#121926"/>
<path d="M85.8385 33.795C83.821 32.7998 83.7814 27.0811 83.817 25.2604L85.2372 25.521C85.2372 25.521 89.8459 18.1396 77.444 16.2715C77.444 16.2715 77.3055 16.2163 77.0721 16.1452C77.8431 13.006 76.117 9.79203 73.0713 8.69583C70.0257 7.59963 66.6424 8.97462 65.2296 11.8828C63.8167 14.7909 64.8299 18.2947 67.5778 20.0037C67.4647 20.0731 67.361 20.1568 67.2692 20.2525C65.94 21.5993 66.3158 22.4642 66.4978 24.352C66.6798 26.2398 65.22 25.446 63.7286 26.2319C62.2372 27.0179 60.2829 28.1237 62.431 29.5731L69.2393 32.1086L68.0525 33.7437L67.558 34.4151C67.486 34.513 67.4212 34.6159 67.3641 34.7231L68.4283 35.2484C68.4535 35.2001 68.4826 35.1538 68.5153 35.1102L69.1285 34.2729L70.3984 32.5391L74.9992 34.2532C75.3298 33.8426 75.5965 33.3846 75.7904 32.8946C76.0919 33.0567 76.4085 33.189 76.7358 33.2895L76.4154 36.449C76.269 36.844 76.1266 37.2587 76 37.6812C75.8734 38.1038 75.7824 38.4711 75.6994 38.8661L76.1504 39.0872L77.2699 39.6402L81.6492 41.8005L86.242 39.0675L86.9027 38.6725C86.9304 38.5738 86.9581 38.479 86.9818 38.3882C87.1717 37.701 87.3497 37.2034 87.4288 36.9783C87.8403 35.7697 88.2398 34.9799 85.8385 33.795ZM76.0238 31.6742C76.0029 31.2466 75.8401 30.8381 75.5609 30.5131C74.2436 28.9333 73.1359 27.6853 74.3741 26.848C75.6123 26.0108 75.5847 24.6838 74.9992 23.5147L74.9794 23.4792C74.8389 23.192 74.9278 22.8456 75.1892 22.6611C75.4506 22.4767 75.8074 22.5087 76.0317 22.7367L77.444 24.0953L81.8193 24.8852C81.7797 27.1798 81.3327 30.5684 79.1885 31.9112C78.1758 32.551 77.0484 32.2982 76.0238 31.6742Z" fill="#121926"/>
<path d="M124.405 6.08997L122.063 6.35853C121.503 6.42551 120.951 6.54451 120.414 6.71398L116.727 0C116.727 0 114.832 3.55446 114.852 6.59155L109.883 5.75428C109.883 5.75428 111.956 10.4462 114.879 11.9153C114.365 13.2404 114.183 14.6707 114.349 16.082L116.691 15.8134C121.509 15.2526 124.962 10.9009 124.405 6.08997Z" fill="#121926"/>
<path d="M124.207 7.11682L128.871 8.11997L123.729 9.30479L124.207 7.11682Z" fill="#2970FF"/>
<path d="M82.6259 49.0002H81.4391C81.4391 47.5982 79.56 46.4292 78.0409 45.7499C77.5894 45.5452 77.1256 45.3684 76.6523 45.2206L77.0005 44.0872L77.0717 44.1109C77.7521 44.3281 82.6259 45.9908 82.6259 49.0002Z" fill="#2970FF"/>
<path d="M89.256 46.208L88.4253 47.0531C88.0482 46.6876 87.6521 46.3422 87.2385 46.0184C87.0328 45.8565 86.8192 45.6945 86.6055 45.5366C86.3919 45.3786 86.111 45.1732 85.8697 44.9994C84.7304 44.2096 83.7414 43.5935 83.7256 43.5816L84.3506 42.5706C84.4021 42.6022 84.9084 42.9142 85.6047 43.3802L86.3761 43.9094L86.9616 44.3043C87.7692 44.8856 88.5358 45.5216 89.256 46.208Z" fill="#2970FF"/>
</svg>
