<svg width="180" height="201" viewBox="0 0 180 201" fill="none" xmlns="http://www.w3.org/2000/svg">
<path d="M136.89 75.4625C136.013 70.8841 136.334 66.457 137.745 63.6473C141.13 56.8896 140.206 51.1765 134.451 43.2769C130.511 37.8736 132.344 33.7526 133.729 31.8399L137.038 31.4256L135.49 28.5439C141.083 27.6505 145.369 21.7897 145.369 14.7762C145.369 7.12878 140.271 0.907776 134.004 0.907776C127.736 0.907776 122.638 7.12878 122.638 14.7762C122.638 21.2818 126.289 26.8364 131.409 28.2809L129.486 32.3658L132.347 32.0056C130.955 34.4046 129.742 38.6552 133.567 43.8928C139.113 51.5079 139.982 56.7275 136.767 63.1466C133.437 69.7926 136.215 82.2995 140.542 85.437L141.177 84.5653C139.38 83.2757 137.691 79.6951 136.89 75.4625ZM132.964 27.5244L132.293 27.3839C127.325 26.3537 123.72 21.0513 123.72 14.7762C123.72 7.72314 128.335 1.98844 134.004 1.98844C139.672 1.98844 144.287 7.72314 144.287 14.7762C144.287 21.5592 140.022 27.1678 134.581 27.5424L133.747 27.6001L135.32 30.5467L134.685 30.6259L133.152 30.8168L131.308 31.0474L132.964 27.5244Z" fill="#121926"/>
<path d="M88.1576 103.39H54.1143C54.172 103.207 54.2297 103.03 54.2911 102.85C54.3524 102.67 54.421 102.49 54.4895 102.31C55.7524 99.0389 57.6539 97.3675 58.123 96.9893L58.2312 96.9064L75.9547 92.7243C76.14 92.4998 76.3427 92.2902 76.5608 92.0975C76.6474 92.0218 76.734 91.9534 76.817 91.8885C77.0314 91.7245 77.2624 91.5832 77.5062 91.4671C77.5531 91.4383 77.6 91.4203 77.6469 91.395C77.6938 91.3698 86.3066 96.9604 87.9303 102.31C87.97 102.436 88.006 102.565 88.0349 102.692C88.0849 102.883 88.1211 103.078 88.1431 103.275C88.1504 103.315 88.154 103.351 88.1576 103.39Z" fill="#121926"/>
<path d="M97.5605 154.542C99.0038 143.375 93.7611 124.802 91.8776 119.698C90.5907 116.139 89.5526 112.496 88.7709 108.794C88.7349 108.61 88.6988 108.433 88.6663 108.253C88.6338 108.073 88.5977 107.893 88.5653 107.713H53.3637C53.3637 107.89 53.3421 108.073 53.3385 108.253C53.3349 108.433 53.3385 108.614 53.3385 108.794C53.3385 111.845 53.9374 115.544 55.6513 119.96C57.2461 124.071 56.1889 128.022 53.4864 130.169C50.7839 132.316 46.4901 141.455 51.6029 147.366C56.7157 153.277 55.9075 160.528 53.7678 165.096C51.6751 169.53 48.0633 175.737 55.4926 183.719C55.7163 183.957 55.9472 184.199 56.1889 184.44H67.7604L67.8254 184.271C67.8759 184.148 67.948 183.961 68.0419 183.719C68.9619 181.385 71.9243 173.929 73.9485 169.671C75.5397 166.321 77.8237 159.268 78.5237 150.64C78.6463 150.824 78.7726 151.001 78.8845 151.184C79.9236 152.647 81.0494 153.976 82.0416 155.269C85.6498 159.952 83.8024 161.08 81.919 170.759C80.5046 178.017 84.1272 181.893 86.0215 183.366C86.3611 183.637 86.7232 183.878 87.1039 184.087L96.8461 183.727C96.9002 183.619 96.9507 183.496 97.0012 183.366C98.5997 178.957 96.5574 162.304 97.5605 154.542Z" fill="#121926"/>
<path d="M60.5797 184.667C57.4478 181.929 57.8339 171.893 60.4931 168.097C62.7663 164.855 64.4044 152.478 59.14 147.924C57.4009 146.422 56.4592 144.596 56.3437 142.521C56.1056 138.26 59.2772 133.876 61.9833 130.954C66.0281 126.578 62.99 118.631 62.9575 118.552L63.9678 118.156C64.1049 118.516 67.2874 126.801 62.7771 131.689C60.6807 133.959 57.1952 138.375 57.4225 142.46C57.5412 144.285 58.4207 145.977 59.8473 147.125C65.6204 152.125 63.874 165.175 61.3807 168.738C59.0426 172.07 58.6024 181.522 61.2941 183.867L60.5797 184.667Z" fill="white"/>
<path d="M68.2799 184.498L67.3057 184.022C74.8829 168.533 77.4627 155.244 78.3034 146.833C79.3859 136.07 78.105 128.563 76.6798 125.407C73.3927 118.109 75.8246 108.862 75.9292 108.477L76.9756 108.758C76.9504 108.848 74.5401 118.026 77.6684 124.968C80.7498 131.797 82.507 155.341 68.2799 184.498Z" fill="white"/>
<path d="M65.3353 194.886L69.6651 183.719H53.8721L54.6514 198.849H56.6359L57.3865 196.608L59.2699 198.488H69.777V194.886H65.3353ZM68.6945 197.408H59.7173L56.9102 194.605L55.8566 197.768H55.6762L55.0123 184.8H68.0847L63.7549 195.967H68.6945V197.408Z" fill="#121926"/>
<path d="M94.9232 194.526L99.253 183.359H83.46L84.2393 198.488H86.2238L86.9743 196.248L88.8578 198.128H99.3649V194.526H94.9232ZM98.2824 197.048H89.3052L86.4981 194.245L85.4445 197.408H85.2641L84.6001 184.44H97.6726L93.3428 195.607H98.2824V197.048Z" fill="#121926"/>
<path d="M59.9378 70.74L59.0502 70.1204C59.844 68.9893 60.1327 68.0564 59.9126 67.4296C59.7377 67.0429 59.4033 66.7512 58.9961 66.6299L59.2631 65.5817C60.0111 65.7899 60.6233 66.3269 60.9265 67.0406C61.2945 68.0312 60.9626 69.2775 59.9378 70.74Z" fill="#2970FF"/>
<path d="M63.4703 85.6135C61.0961 85.6135 58.2998 83.9601 58.1338 83.8628L58.6895 82.9335C60.0786 83.762 63.9466 85.5379 65.1842 83.8052L66.0646 84.432C65.4476 85.3037 64.495 85.6135 63.4703 85.6135Z" fill="#2970FF"/>
<path d="M72.6058 74.2738L71.6388 73.7911C71.7517 73.5662 71.7622 73.3038 71.6677 73.0707C71.2203 71.8495 68.8244 70.596 67.9404 70.2177L68.3662 69.2235C68.727 69.382 71.9744 70.8229 72.696 72.6996C72.8885 73.2138 72.8558 73.785 72.6058 74.2738Z" fill="#2970FF"/>
<path d="M65.5921 78.7189C63.6978 78.7189 60.9628 76.8674 60.6309 76.6368L61.2443 75.7507C62.4638 76.59 64.7983 77.8399 65.8591 77.613C66.0201 77.5908 66.1622 77.4967 66.2452 77.3572L67.1761 77.912C66.9384 78.3053 66.5452 78.58 66.0937 78.6684C65.9287 78.7027 65.7606 78.7196 65.5921 78.7189Z" fill="#2970FF"/>
<path d="M74.1069 84.1582L73.0244 84.079C73.0497 83.7187 73.3167 80.592 74.8285 79.3673C75.301 78.9795 75.9157 78.8094 76.5208 78.899L76.3692 79.9797C76.0607 79.9281 75.7451 80.0151 75.5069 80.2174C74.5326 80.9991 74.1646 83.3261 74.1069 84.1582Z" fill="#2970FF"/>
<path d="M70.4666 64.3461C70.3163 64.3468 70.1671 64.3199 70.0264 64.2669C68.9151 63.8562 68.4316 61.9254 68.3486 61.5436L69.4022 61.3058C69.5646 62.0263 70.0012 63.1069 70.4017 63.2546C70.4342 63.2546 70.5208 63.2979 70.7156 63.1538L71.3651 64.0183C71.1102 64.2239 70.7942 64.3392 70.4666 64.3461Z" fill="#2970FF"/>
<path d="M92.4332 15.9505L91.5023 15.403L94.8615 9.72594L91.1523 12.4168L96.6584 1.81551L91.2966 3.50494L87.4214 13.7064L86.4111 13.3245L90.474 2.63321L98.8233 0L94.2265 8.85061L98.4553 5.77793L92.4332 15.9505Z" fill="#121926"/>
<path d="M76.7303 65.5456L93.7321 15.7128L86.126 12.8851L67.4933 45.3409L68.4351 45.8776L86.6059 14.2179L92.379 16.3792L76.1891 63.7842L75.5252 61.6228L74.4932 61.9398L75.5937 65.524V65.5708H75.6262L81.356 84.2086L54.2945 90.8907C54.5002 85.5991 55.2002 67.2639 54.9981 66.3381L53.9373 66.5579C53.9806 66.846 53.9554 68.6003 53.8904 71.1543L31.1696 15.4967L38.57 16.1775L54.6734 49.4366L55.6476 48.9683L39.2808 15.1653L29.499 14.2683L53.4755 73.0886L53.8146 72.9518C53.6595 78.2542 53.3853 85.8224 53.158 91.5823L53.1291 92.3028L57.8703 91.1429V97.0613L78.437 92.2956L76.4597 86.5573L82.7199 85.0119L76.7303 65.5456ZM77.0153 91.4995L58.9527 95.6852V90.8619L75.3953 86.8202L77.0153 91.4995Z" fill="#121926"/>
<path d="M30.8669 15.5579L26.7933 7.44939L30.7082 10.2915L26.1113 1.44092L34.4607 4.07413L38.7472 15.4967L37.5096 15.1473L33.6344 4.94586L28.2726 3.26003L33.7787 13.8613L29.7556 10.9399L31.8339 15.0752L30.8669 15.5579Z" fill="#121926"/>
<path d="M41.4457 25.6729L40.3632 25.4928C40.6194 23.9618 38.2308 21.4295 37.2891 20.5794L38.0107 19.7761C38.4184 20.1291 41.8426 23.2882 41.4457 25.6729Z" fill="#2970FF"/>
<path d="M45.5409 39.2135C43.9605 38.4247 42.5497 34.9954 42.3945 34.6099L43.3976 34.2065C43.928 35.5285 45.1079 37.7907 46.0244 38.2482L45.5409 39.2135Z" fill="#2970FF"/>
<path d="M83.7304 24.7724C83.4423 24.5921 83.2677 24.2761 83.2686 23.9367C83.2686 22.856 85.1051 21.516 85.8953 20.9901L86.4943 21.8906C85.3829 22.611 84.3618 23.6052 84.351 23.9367C84.349 23.9103 84.3389 23.8851 84.3221 23.8646L83.7304 24.7724Z" fill="#2970FF"/>
<path d="M84.466 30.9861L84.3145 29.9055C86.3423 29.6173 86.3747 26.1556 86.3747 26.1196H87.4572C87.4572 26.3033 87.4247 30.5575 84.466 30.9861Z" fill="#2970FF"/>
<path d="M77.7152 38.5219C76.4018 38.0861 75.9941 35.0278 75.9111 34.102L76.9936 33.994C77.1668 35.6978 77.6791 37.3656 78.076 37.4989L77.7152 38.5219Z" fill="#2970FF"/>
<path d="M81.3235 41.7639L80.9844 40.7409C82.3916 40.269 82.2292 37.0306 82.0668 35.9319L83.1493 35.7662C83.2034 36.2922 83.8493 40.9246 81.3235 41.7639Z" fill="#2970FF"/>
<path d="M78.1881 49.0259C78.0662 49.0269 77.9448 49.0111 77.8273 48.9791C76.301 48.5865 75.3737 45.5966 75.2041 45.0167L76.2433 44.7213C76.586 45.9172 77.4159 47.7724 78.0979 47.9633C78.1592 47.9633 78.3144 48.0173 78.5886 47.7436L79.3535 48.5072C79.0512 48.8303 78.6308 49.0174 78.1881 49.0259Z" fill="#2970FF"/>
<path d="M90.3438 18.9188H89.2613C89.2613 18.2812 87.7351 18.0182 86.916 18.0182V16.9376C87.266 16.9376 90.3438 16.9916 90.3438 18.9188Z" fill="#2970FF"/>
<path d="M46.7609 47.6535C45.7181 45.9172 47.0892 44.0837 47.9624 43.3597L48.6552 44.1882L48.2943 43.7739L48.6552 44.1882C48.6371 44.1882 46.8511 45.7191 47.6918 47.0988L46.7609 47.6535Z" fill="#2970FF"/>
<path d="M54.2621 61.0645H53.1796C53.1796 59.0617 50.524 58.7339 50.4121 58.7195L50.5348 57.6388C51.8229 57.7901 54.2621 58.687 54.2621 61.0645Z" fill="#2970FF"/>
<path d="M41.6767 31.2059C41.6154 31.2094 41.554 31.2094 41.4927 31.2059C40.2479 31.0294 39.0427 28.9689 38.8154 28.5583L39.7608 28.0323C40.2948 28.9905 41.168 30.0676 41.6443 30.136C41.7011 30.1446 41.7581 30.121 41.7922 30.0748L42.5571 30.8385C42.3254 31.0745 42.0078 31.207 41.6767 31.2059Z" fill="#2970FF"/>
<path d="M179.827 200.43C178.106 200.43 7.66228 200.07 4.91644 200.43L4.73242 199.349C6.7927 198.989 172.762 199.324 179.827 199.349V200.43Z" fill="#121926"/>
<path d="M11.3242 102.31V108.794H17.0973V199.929H24.3137V108.794H157.456V200.29H164.672V108.794H170.446V102.31H11.3242ZM23.2313 198.849H18.1798V109.154H23.2313V198.849ZM163.59 199.209H158.539V109.514H163.59V199.209ZM169.363 107.713H12.4067V103.39H169.363V107.713Z" fill="#121926"/>
<path d="M74.9621 51.6195C74.3519 51.1799 73.6992 50.8022 73.0137 50.492C72.2921 50.1606 72.2921 50.1606 72.2921 48.817C72.2491 47.66 72.0138 46.5181 71.5957 45.4381C71.8988 44.2026 72.1369 41.5586 69.2973 40.0348L59.3278 20.5109L56.8021 42.7869C55.9469 43.0283 55.1026 43.2156 54.6624 43.8352C53.6666 45.2292 54.1212 45.9569 54.547 47.6355C54.9727 49.3141 53.5583 48.7954 52.3387 49.7104C51.1192 50.6253 49.5352 51.8717 51.646 52.9019L58.0577 54.2527L56.8815 56.5617C56.5877 57.1372 56.5446 57.8081 56.7625 58.4163C56.9804 59.0244 57.4398 59.5159 58.0325 59.7749L63.001 61.9362C63.2983 62.0651 63.6186 62.1325 63.9427 62.1343C64.5863 62.1323 65.2009 61.8667 65.6428 61.3996C66.0848 60.9325 66.3154 60.3048 66.2808 59.6632L65.9958 54.2851C66.5947 54.1976 67.1544 53.9358 67.605 53.5323C67.67 53.4747 67.7349 53.4134 67.7962 53.3486L67.771 54.051C68.5552 54.0798 69.2768 54.0942 69.9359 54.0942C73.3998 54.0942 75.2905 53.6908 75.5647 52.8875C75.6802 52.5777 75.6585 52.113 74.9621 51.6195ZM60.0098 24.1888L67.7782 39.3973C66.2734 38.992 64.7179 38.8052 63.1597 38.8425C63.1597 38.8425 59.8907 38.0392 59.3026 40.5824C59.3026 40.5824 59.3026 40.6112 59.3026 40.6292C59.1638 41.3924 58.6598 42.0396 57.9531 42.3619L60.0098 24.1888ZM64.6607 60.8123C64.3014 61.0646 63.8362 61.111 63.4339 60.9348L58.4655 58.7735C58.1451 58.6347 57.8966 58.3697 57.779 58.0414C57.6615 57.7132 57.6853 57.3509 57.8448 57.0408L59.1618 54.4725L63.4917 55.3838C63.7352 54.969 63.9141 54.5196 64.0221 54.051C64.311 54.1507 64.608 54.2254 64.9097 54.2743L65.1984 59.7101C65.2229 60.1457 65.0194 60.563 64.6607 60.8123ZM65.2958 53.2297C64.8665 53.1911 64.4463 53.0841 64.0509 52.9127C63.9742 52.5333 63.7737 52.1901 63.4809 51.9365C62.0881 50.7046 60.9299 49.7176 61.9077 48.7954C62.8855 47.8732 62.687 46.6773 62.0015 45.7047C61.9947 45.6956 61.9886 45.686 61.9834 45.6759C61.8307 45.4384 61.8675 45.1263 62.0713 44.9308C62.2751 44.7352 62.5889 44.7109 62.8206 44.8726L64.2638 45.892L68.2653 46.0145C68.2653 46.0541 68.2653 46.0974 68.2653 46.1406C68.2633 46.1573 68.2633 46.1743 68.2653 46.191V46.2775C68.2674 46.2954 68.2674 46.3135 68.2653 46.3315C68.3122 47.088 68.2653 50.0706 67.5437 51.9077C67.368 52.2059 67.1478 52.4756 66.8906 52.7074C66.4569 53.0988 65.8774 53.2886 65.2958 53.2297ZM68.2509 52.9739C68.3514 52.7948 68.4405 52.6095 68.5179 52.4192C69.6256 50.5677 69.6003 47.9777 69.355 46.0974V46.0577L70.6684 46.0974C70.9936 46.9695 71.1799 47.8872 71.2204 48.817C71.2204 50.6721 71.455 50.9567 72.5555 51.4718C73.1815 51.7534 73.7775 52.0973 74.3343 52.4985L74.4209 52.5633C73.6235 52.9055 70.8127 53.046 68.2509 52.9595V52.9739Z" fill="#121926"/>
<path d="M124.081 76.1937V58.9032H117.406V52.9595H115.963V58.9032H104.416V52.9595H102.973V58.9032H96.298V76.1937H89.4424V101.769H130.576V76.1937H124.081ZM105.499 65.9275C106.581 62.6855 107.664 60.1639 108.025 62.3253C108.385 64.4866 109.829 69.8899 110.911 66.6479C111.994 63.4059 111.994 60.5242 112.715 62.3253C113.437 64.1264 115.241 69.8899 116.323 66.2877C117.406 62.6855 119.21 60.8844 119.21 63.0457C119.21 64.926 122.219 66.2625 122.999 65.3871V76.1937H97.3804V65.3475C97.6366 66.7884 98.102 67.6205 99.0041 66.2877C101.169 63.0457 101.169 60.1639 101.891 62.3253C102.612 64.4866 104.416 69.1694 105.499 65.9275ZM129.493 100.689H90.5248V79.2088C91.3656 82.7785 93.0217 88.6753 94.3134 86.0998C96.1175 82.4976 96.8392 79.976 97.5608 80.6965C98.2825 81.4169 100.447 89.3418 101.891 86.0998C103.334 82.8578 102.251 78.8954 103.695 80.3363C105.138 81.7771 104.777 90.0622 106.942 86.46C109.107 82.8578 107.664 78.1749 109.829 80.3363C111.994 82.4976 112.715 88.2611 113.798 85.3793C114.88 82.4976 115.602 78.5352 116.323 79.976C117.045 81.4169 119.21 89.3418 120.653 85.7396C122.097 82.1374 124.622 77.4545 125.344 80.6965C125.9 83.1964 128.386 86.2907 129.493 85.9521V100.689Z" fill="#121926"/>
<path d="M103.333 51.8789C103.333 51.8789 100.807 51.1585 102.612 48.6369C104.416 46.1154 104.055 44.6745 104.055 44.6745C104.055 44.6745 107.302 48.9971 103.333 51.8789Z" fill="#121926"/>
<path d="M116.684 51.8789C116.684 51.8789 114.158 51.5187 115.962 48.9971C117.766 46.4756 117.405 44.3143 117.405 44.3143C117.405 44.3143 119.931 49.3574 116.684 51.8789Z" fill="#121926"/>
<path d="M18.4977 90.3468L17.8626 91.2185C13.5328 88.081 10.7581 75.5742 14.0885 68.9281C17.3034 62.509 16.4338 57.2894 10.888 49.6743C6.72414 43.9541 8.52462 39.4333 10.0365 37.1819L7.71639 37.4701L9.52049 33.677C4.40767 32.5963 0.5 27.1354 0.5 20.5397C0.5 13.1805 5.34581 7.21161 11.3246 7.21161C17.3034 7.21161 22.1492 13.1805 22.1492 20.5397C22.1492 27.6469 17.6317 33.4536 11.938 33.8463L13.4895 36.7497L11.505 36.9982C10.1952 38.5147 7.33392 42.9598 11.7612 49.0404C17.5343 56.94 18.4399 62.6531 15.0555 69.4108C13.6447 72.2313 13.3235 76.6476 14.2003 81.226C15.0122 85.4586 16.7008 89.0392 18.4977 90.3468Z" fill="#121926"/>
<path d="M104.842 30.5647L97.0771 37.4701L100.588 38.0537L106.992 33.2591L104.842 30.5647ZM100.306 36.901L99.4874 36.7641L104.712 32.1281L105.434 33.0502L100.306 36.901Z" fill="#121926"/>
<path d="M58.5598 4.75488L53.2666 8.81816L53.9305 10.8138L62.6696 7.32325L58.5598 4.75488ZM54.5367 9.2072L58.6248 6.06608L60.2881 7.10712L54.5944 9.3729L54.5367 9.2072Z" fill="#121926"/>
<path d="M143.973 44.1774L141.988 47.6463L147.061 52.711L149.515 49.2817L143.973 44.1774ZM146.924 51.0468L143.338 47.4662L144.24 45.892L148.075 49.433L146.924 51.0468Z" fill="#121926"/>
<path d="M32.6524 78.8954L26.6592 83.6791V87.8288L35.6255 81.86L32.6524 78.8954ZM27.7416 84.1978L32.573 80.3363L33.9297 81.6907L27.7416 85.8116V84.1978Z" fill="#121926"/>
</svg>
