<svg width="23" height="23" viewBox="0 0 23 23" fill="none" xmlns="http://www.w3.org/2000/svg">
<path d="M12.6435 10.3287L12.651 10.349L12.6713 10.3565L17.4926 12.1381L17.4964 12.1437L17.5107 12.149C17.7883 12.2512 18.0278 12.436 18.197 12.6786C18.3662 12.9212 18.457 13.2099 18.457 13.5056C18.457 13.8014 18.3662 14.0901 18.197 14.3326C18.0278 14.5752 17.7883 14.7601 17.5107 14.8623L12.6713 16.6435L12.6511 16.651L12.6436 16.6712L10.8511 21.5106L10.851 21.5107C10.7489 21.7882 10.564 22.0278 10.3214 22.197C10.0788 22.3662 9.79018 22.4569 9.4944 22.4569C9.19863 22.4569 8.90997 22.3662 8.66738 22.197C8.42479 22.0278 8.23994 21.7882 8.13777 21.5107L6.35652 16.6713L6.34906 16.651L6.32881 16.6435L1.48943 14.851L1.48934 14.851C1.21178 14.7488 0.972231 14.564 0.803023 14.3214C0.633815 14.0788 0.543091 13.7901 0.543091 13.4944C0.543091 13.1986 0.633815 12.9099 0.803023 12.6674C0.972231 12.4248 1.21178 12.2399 1.48934 12.1377L6.32872 10.3565L6.34898 10.349L6.35648 10.3288L8.14898 5.48941L8.14902 5.48932C8.25119 5.21175 8.43604 4.9722 8.67863 4.803C8.92122 4.63379 9.20988 4.54306 9.50565 4.54306C9.80143 4.54306 10.0901 4.63379 10.3327 4.803C10.5753 4.9722 10.7601 5.21175 10.8623 5.48932L12.6435 10.3287ZM11.86 15.4396L11.8438 15.3956L11.86 15.4396L17.0022 13.544L17.1214 13.5L17.0022 13.456L11.8563 11.5567L11.8562 11.5566C11.7608 11.5215 11.6741 11.466 11.6022 11.3941C11.5303 11.3222 11.4748 11.2355 11.4396 11.14L11.3957 11.1562L11.4396 11.14L9.54401 5.99785L9.50003 5.87854L9.45605 5.99785L7.56042 11.14L7.56036 11.1402C7.52524 11.2367 7.46943 11.3242 7.39685 11.3968C7.32427 11.4694 7.23669 11.5252 7.14024 11.5603L7.14006 11.5604L1.99788 13.456L1.87857 13.5L1.99788 13.544L7.14006 15.4396L7.14024 15.4397C7.23669 15.4748 7.32427 15.5306 7.39685 15.6032C7.46943 15.6758 7.52524 15.7633 7.56036 15.8598L7.56042 15.86L9.45605 21.0022L9.5 21.1214L9.544 21.0022L11.4434 15.8562L11.4434 15.8562C11.4786 15.7608 11.534 15.6741 11.6059 15.6022C11.6779 15.5302 11.7645 15.4748 11.86 15.4396ZM14.75 3.04688H14.7969V3V1.5C14.7969 1.31352 14.871 1.13468 15.0028 1.00282C15.1347 0.870954 15.3135 0.796875 15.5 0.796875C15.6865 0.796875 15.8653 0.870954 15.9972 1.00282C16.1291 1.13468 16.2032 1.31352 16.2032 1.5V3V3.04688H16.25H17.75C17.9365 3.04688 18.1154 3.12095 18.2472 3.25282C18.3791 3.38468 18.4532 3.56352 18.4532 3.75C18.4532 3.93648 18.3791 4.11532 18.2472 4.24718C18.1154 4.37905 17.9365 4.45312 17.75 4.45312H16.25H16.2032V4.5V6C16.2032 6.18648 16.1291 6.36532 15.9972 6.49718C15.8653 6.62905 15.6865 6.70312 15.5 6.70312C15.3135 6.70312 15.1347 6.62905 15.0028 6.49718C14.871 6.36532 14.7969 6.18648 14.7969 6V4.5V4.45312H14.75H13.25C13.0635 4.45312 12.8847 4.37905 12.7528 4.24718C12.621 4.11532 12.5469 3.93648 12.5469 3.75C12.5469 3.56352 12.621 3.38468 12.7528 3.25282C12.8847 3.12095 13.0635 3.04688 13.25 3.04688H14.75ZM20.75 8.95312H20.7032V9V9.75C20.7032 9.93648 20.6291 10.1153 20.4972 10.2472C20.3654 10.379 20.1865 10.4531 20 10.4531C19.8135 10.4531 19.6347 10.379 19.5028 10.2472C19.371 10.1153 19.2969 9.93648 19.2969 9.75V9V8.95312H19.25H18.5C18.3135 8.95312 18.1347 8.87905 18.0028 8.74718C17.871 8.61532 17.7969 8.43648 17.7969 8.25C17.7969 8.06352 17.871 7.88468 18.0028 7.75282C18.1347 7.62095 18.3135 7.54688 18.5 7.54688H19.25H19.2969V7.5V6.75C19.2969 6.56352 19.371 6.38468 19.5028 6.25282C19.6347 6.12095 19.8135 6.04688 20 6.04688C20.1865 6.04688 20.3654 6.12095 20.4972 6.25282C20.6291 6.38468 20.7032 6.56352 20.7032 6.75V7.5V7.54688H20.75H21.5C21.6865 7.54688 21.8654 7.62095 21.9972 7.75282C22.1291 7.88468 22.2032 8.06352 22.2032 8.25C22.2032 8.43648 22.1291 8.61532 21.9972 8.74718C21.8654 8.87905 21.6865 8.95312 21.5 8.95312H20.75Z" fill="#116DF6" stroke="#116DF6" stroke-width="0.09375"/>
</svg>
