<svg width="27" height="27" viewBox="0 0 27 27" fill="none" xmlns="http://www.w3.org/2000/svg">
<path d="M13.4998 0.166748C6.15317 0.166748 0.166504 6.15341 0.166504 13.5001C0.166504 20.8467 6.15317 26.8334 13.4998 26.8334C20.8465 26.8334 26.8332 20.8467 26.8332 13.5001C26.8332 6.15341 20.8465 0.166748 13.4998 0.166748ZM18.8332 14.5001H14.4998V18.8334C14.4998 19.3801 14.0465 19.8334 13.4998 19.8334C12.9532 19.8334 12.4998 19.3801 12.4998 18.8334V14.5001H8.1665C7.61984 14.5001 7.1665 14.0467 7.1665 13.5001C7.1665 12.9534 7.61984 12.5001 8.1665 12.5001H12.4998V8.16675C12.4998 7.62008 12.9532 7.16675 13.4998 7.16675C14.0465 7.16675 14.4998 7.62008 14.4998 8.16675V12.5001H18.8332C19.3798 12.5001 19.8332 12.9534 19.8332 13.5001C19.8332 14.0467 19.3798 14.5001 18.8332 14.5001Z" fill="#FDFEFF"/>
</svg>
