<svg width="24" height="24" viewBox="0 0 24 24" fill="none" xmlns="http://www.w3.org/2000/svg">
<path d="M10.9856 17.6943C11.0905 17.7988 11.1737 17.923 11.2305 18.0597C11.2873 18.1965 11.3165 18.3431 11.3165 18.4911C11.3165 18.6392 11.2873 18.7858 11.2305 18.9226C11.1737 19.0593 11.0905 19.1835 10.9856 19.288L10.5056 19.768C9.99607 20.2794 9.3902 20.6848 8.72304 20.9606C8.05588 21.2364 7.34065 21.3772 6.61873 21.3749C5.53154 21.3752 4.46868 21.0531 3.5646 20.4493C2.66052 19.8454 1.95586 18.987 1.53977 17.9826C1.12367 16.9782 1.01484 15.8729 1.22703 14.8066C1.43923 13.7404 1.96292 12.761 2.73185 11.9924L5.98967 8.73457C6.68261 8.04174 7.54813 7.5467 8.49665 7.30072C9.44516 7.05473 10.4422 7.06674 11.3845 7.33549C12.3268 7.60425 13.1802 8.11998 13.8562 8.8293C14.5323 9.53863 15.0065 10.4158 15.2297 11.3699C15.2666 11.515 15.2743 11.6659 15.2521 11.814C15.23 11.9621 15.1785 12.1042 15.1008 12.2321C15.023 12.3601 14.9205 12.4712 14.7992 12.559C14.6779 12.6468 14.5404 12.7095 14.3946 12.7434C14.2488 12.7773 14.0976 12.7818 13.9501 12.7566C13.8025 12.7314 13.6614 12.677 13.5352 12.5966C13.4089 12.5162 13.2999 12.4113 13.2147 12.2883C13.1295 12.1652 13.0696 12.0264 13.0387 11.8799C12.9063 11.3167 12.6258 10.799 12.2263 10.3805C11.8268 9.96201 11.3227 9.65779 10.7663 9.49932C10.2098 9.34085 9.62113 9.33388 9.06107 9.47913C8.50101 9.62438 7.98991 9.91657 7.5806 10.3255L4.32279 13.5833C3.86867 14.0371 3.55932 14.6153 3.43384 15.2449C3.30836 15.8744 3.3724 16.5271 3.61786 17.1203C3.86332 17.7134 4.27917 18.2205 4.81282 18.5773C5.34648 18.9341 5.97396 19.1247 6.61592 19.1249C7.04245 19.1261 7.465 19.0427 7.85909 18.8795C8.25319 18.7163 8.61101 18.4766 8.91185 18.1743L9.39092 17.6943C9.49545 17.5892 9.6197 17.5059 9.75653 17.449C9.89336 17.3922 10.0401 17.3629 10.1883 17.3629C10.3364 17.3629 10.4832 17.3922 10.62 17.449C10.7568 17.5059 10.8811 17.5892 10.9856 17.6943ZM21.2653 4.23457C20.2342 3.20381 18.8359 2.62476 17.3779 2.62476C15.92 2.62476 14.5217 3.20381 13.4906 4.23457L13.0115 4.71363C12.8002 4.92498 12.6815 5.21162 12.6815 5.51051C12.6815 5.8094 12.8002 6.09604 13.0115 6.30738C13.2229 6.51873 13.5095 6.63746 13.8084 6.63746C14.1073 6.63746 14.3939 6.51873 14.6053 6.30738L15.0853 5.82738C15.6945 5.21822 16.5207 4.87599 17.3822 4.87599C18.2437 4.87599 19.0699 5.21822 19.679 5.82738C20.2882 6.43655 20.6304 7.26276 20.6304 8.12426C20.6304 8.98575 20.2882 9.81197 19.679 10.4211L16.4156 13.6743C16.1148 13.9767 15.757 14.2165 15.3629 14.3797C14.9688 14.5428 14.5462 14.6262 14.1197 14.6249C13.3879 14.6244 12.6779 14.3767 12.1046 13.922C11.5313 13.4673 11.1284 12.8323 10.9612 12.1199C10.8936 11.8292 10.7133 11.5773 10.4599 11.4196C10.2066 11.2619 9.90095 11.2113 9.61029 11.2789C9.31963 11.3466 9.06774 11.5269 8.91003 11.7803C8.75233 12.0336 8.70172 12.3392 8.76935 12.6299C9.05164 13.8363 9.7332 14.912 10.7035 15.6826C11.6738 16.4531 12.8759 16.8732 14.115 16.8749H14.1197C14.8419 16.8769 15.5574 16.7356 16.2247 16.4593C16.8921 16.183 17.498 15.7772 18.0075 15.2652L21.2653 12.0074C21.7757 11.4971 22.1806 10.8912 22.4569 10.2243C22.7332 9.5575 22.8753 8.84277 22.8753 8.12098C22.8753 7.39918 22.7332 6.68446 22.4569 6.01762C22.1806 5.35079 21.7757 4.7449 21.2653 4.23457Z" fill="#53575A"/>
</svg>
