<svg width="18" height="12" viewBox="0 0 18 12" fill="none" xmlns="http://www.w3.org/2000/svg">
<path d="M1.32773 7.82362C2.10408 4.09555 5.34949 1.44663 9.00016 1.44663C12.6497 1.44663 15.8951 4.09555 16.6726 7.82362C16.7034 7.97156 16.7917 8.1012 16.9181 8.18403C17.0444 8.26686 17.1985 8.29609 17.3465 8.2653C17.4944 8.2345 17.6241 8.14621 17.7069 8.01982C17.7897 7.89344 17.8189 7.73934 17.7882 7.5914C16.9037 3.35108 13.2041 0.308289 9.00016 0.308289C4.79626 0.308289 1.09665 3.35108 0.212154 7.5914C0.18136 7.73934 0.210593 7.89344 0.293424 8.01982C0.376254 8.14621 0.505897 8.2345 0.653831 8.2653C0.801766 8.29609 0.955874 8.26686 1.08225 8.18403C1.20864 8.1012 1.29694 7.97156 1.32773 7.82362ZM8.98877 3.72331C10.0454 3.72331 11.0588 4.14308 11.806 4.89026C12.5532 5.63744 12.973 6.65084 12.973 7.70751C12.973 8.76419 12.5532 9.77758 11.806 10.5248C11.0588 11.2719 10.0454 11.6917 8.98877 11.6917C7.9321 11.6917 6.9187 11.2719 6.17152 10.5248C5.42434 9.77758 5.00457 8.76419 5.00457 7.70751C5.00457 6.65084 5.42434 5.63744 6.17152 4.89026C6.9187 4.14308 7.9321 3.72331 8.98877 3.72331Z" fill="#6A707C"/>
</svg>
