<svg width="22" height="24" viewBox="0 0 22 24" fill="none" xmlns="http://www.w3.org/2000/svg">
<path d="M7.62941 13.6107L14.9147 17.856M14.9041 6.14404L7.62941 10.3894M20.8667 4.53337C20.8667 6.30068 19.4341 7.73337 17.6667 7.73337C15.8994 7.73337 14.4667 6.30068 14.4667 4.53337C14.4667 2.76606 15.8994 1.33337 17.6667 1.33337C19.4341 1.33337 20.8667 2.76606 20.8667 4.53337ZM8.06675 12C8.06675 13.7674 6.63406 15.2 4.86675 15.2C3.09944 15.2 1.66675 13.7674 1.66675 12C1.66675 10.2327 3.09944 8.80004 4.86675 8.80004C6.63406 8.80004 8.06675 10.2327 8.06675 12ZM20.8667 19.4667C20.8667 21.234 19.4341 22.6667 17.6667 22.6667C15.8994 22.6667 14.4667 21.234 14.4667 19.4667C14.4667 17.6994 15.8994 16.2667 17.6667 16.2667C19.4341 16.2667 20.8667 17.6994 20.8667 19.4667Z" stroke="#116DF6" stroke-width="1.5" stroke-linecap="round" stroke-linejoin="round"/>
</svg>
