<svg width="25" height="24" viewBox="0 0 25 24" fill="none" xmlns="http://www.w3.org/2000/svg">
<g id="Icon - Leading">
<path id="Vector" d="M12.5 10.8V13.2M12.5 13.2V15.6M12.5 13.2H10.1M12.5 13.2H14.9M4.5 16.5C4.5 18.1569 5.84314 19.5 7.5 19.5H17.5C19.1569 19.5 20.5 18.1569 20.5 16.5V10C20.5 8.34315 19.1576 7 17.5007 7C16.0642 7 14.4544 7 13.4588 7C12.8513 7 12.2791 6.72382 11.8995 6.24939L11.4007 5.62591C10.8314 4.91427 9.96948 4.5 9.05813 4.5H6.50001C5.39544 4.5 4.50001 5.39543 4.50001 6.5L4.5 16.5Z" stroke="#116DF6" stroke-width="1.5" stroke-linecap="round" stroke-linejoin="round"/>
</g>
</svg>
